<svg width="0" height="0" class="hidden">
  <symbol xmlns="http://www.w3.org/2000/svg" viewBox="0 0 18 18" id="facebook">
    <path d="M2.53 17.454h5.634V11.49H6.14V9.524h2.024V7.067c0-1.355 1.135-2.458 2.53-2.458h2.53v1.966H11.2c-.558 0-1.012.441-1.012.983v1.966h2.945l-.337 1.966h-2.608v5.964h4.554c1.396 0 2.53-1.103 2.53-2.458V3.135c0-1.355-1.134-2.457-2.53-2.457H2.53C1.135.678 0 1.78 0 3.135v11.861c0 1.355 1.135 2.458 2.53 2.458zM1.012 3.135c0-.813.681-1.474 1.518-1.474h12.213c.837 0 1.518.661 1.518 1.474v11.861c0 .813-.681 1.475-1.518 1.475H11.2v-3.998h2.453l.675-3.932H11.2v-.983h3.037V3.627h-3.543c-1.953 0-3.542 1.543-3.542 3.44V8.54H5.128v3.932h2.024v3.998H2.53c-.837 0-1.518-.662-1.518-1.475V3.135z"></path>
  </symbol>
  <symbol xmlns="http://www.w3.org/2000/svg" viewBox="0 0 18 17" id="github">
    <path d="M8.636 0C3.89 0 0 3.81 0 8.42c0 4.584 3.854 8.356 8.636 8.356 4.777 0 8.637-3.766 8.637-8.355C17.273 3.81 13.383 0 8.636 0zm1.519 15.646a7.713 7.713 0 01-1.519.147c-.516 0-1.032-.05-1.518-.147v-2.3c0-.551.152-.748.354-1.013.104-.114.166-.217.628-.895l-.78-.118c-2.003-.284-2.793-1.297-3.106-2.083-.405-1.052-.193-2.37.536-3.205a.58.58 0 00.122-.57c-.152-.452-.132-1.17-.03-1.445.536.074 1.087.448 1.548.718.212.12.323.088.425.098.37-.075.946-.256 1.831-.256.547 0 1.124.079 1.69.236.102-.002.265.082.547-.078.481-.285 1.014-.646 1.549-.718.1.275.121.993-.03 1.445a.58.58 0 00.12.57c.73.836.942 2.153.537 3.205-.314.786-1.103 1.799-3.107 2.083l-.78.118c.479.7.529.785.628.895.203.265.354.462.354 1.012v2.3zm1.011-.286v-2.015c0-.56-.121-.933-.283-1.209 1.539-.403 2.632-1.287 3.117-2.555.517-1.337.284-2.93-.577-4.03.152-.66.152-1.71-.212-2.202a.797.797 0 00-.668-.335h-.01c-.785.042-1.403.425-2.065.816a7.186 7.186 0 00-3.653 0c-.697-.408-1.31-.775-2.116-.816a.783.783 0 00-.637.335c-.365.491-.365 1.543-.213 2.201-.86 1.101-1.093 2.704-.577 4.03.486 1.269 1.58 2.153 3.118 2.556a2.093 2.093 0 00-.264.862c-.311.104-.58.138-.831.066-.265-.076-.47-.247-.65-.54-.402-.655-1.086-1.19-1.866-1.121l.09.979c.36-.032.72.339.906.645.308.503.723.833 1.233.98a2.2 2.2 0 001.098.028v1.325c-2.945-1.002-5.094-3.735-5.094-6.94 0-4.069 3.434-7.437 7.624-7.437 4.19 0 7.625 3.368 7.625 7.438 0 3.204-2.15 5.937-5.095 6.94z"></path>
  </symbol>
  <symbol xmlns="http://www.w3.org/2000/svg" viewBox="0 0 18 17" id="instagram">
    <path d="M2.53 16.894h12.213c1.395 0 2.53-1.102 2.53-2.457V2.576c0-1.355-1.135-2.458-2.53-2.458H2.53C1.135.118 0 1.221 0 2.576v11.86c0 1.356 1.135 2.458 2.53 2.458zM1.012 2.576c0-.813.681-1.475 1.518-1.475h12.213c.837 0 1.518.662 1.518 1.475v11.86c0 .814-.681 1.475-1.518 1.475H2.53c-.837 0-1.518-.661-1.518-1.474V2.576z"></path>
    <path d="M8.636 12.93c2.512 0 4.555-1.985 4.555-4.424s-2.043-4.423-4.555-4.423c-2.51 0-4.554 1.984-4.554 4.423 0 2.44 2.043 4.424 4.554 4.424zm0-7.864c1.954 0 3.543 1.543 3.543 3.44s-1.59 3.44-3.543 3.44-3.542-1.543-3.542-3.44 1.59-3.44 3.542-3.44zm4.774-.239c.826 0 1.5-.653 1.5-1.456 0-.804-.674-1.457-1.5-1.457-.828 0-1.5.653-1.5 1.457 0 .803.672 1.456 1.5 1.456zm0-1.942c.275 0 .5.218.5.486a.494.494 0 01-.5.485.494.494 0 01-.5-.485c0-.268.223-.486.5-.486z"></path>
  </symbol>
  <symbol xmlns="http://www.w3.org/2000/svg" viewBox="0 0 18 15" id="twitter">
    <path d="M17.273 2.63c-1.087.048-1.063.044-1.186.054L16.731.9s-2.009.717-2.518.846C12.876.578 10.888.526 9.467 1.375c-1.164.695-1.789 1.888-1.58 3.283-2.265-.306-4.174-1.348-5.68-3.106L1.73.996l-.356.635c-.45.803-.6 1.72-.42 2.584.072.354.197.692.37 1.008l-.41-.154-.048.664c-.049.674.182 1.46.618 2.104.123.181.281.38.482.576l-.212-.031.258.76a3.73 3.73 0 001.956 2.201c-.912.376-1.649.616-2.86 1.003L0 12.7l1.023.543c.39.207 1.77.9 3.132 1.107 3.028.461 6.438.085 8.733-1.922 1.933-1.692 2.568-4.097 2.436-6.6-.02-.38.087-.741.3-1.019a318.17 318.17 0 001.649-2.18zm-2.457 1.59a2.495 2.495 0 00-.502 1.658c.133 2.525-.574 4.483-2.103 5.82-1.785 1.561-4.664 2.174-7.9 1.681-.585-.089-1.191-.288-1.692-.488 1.015-.34 1.8-.642 3.066-1.224l1.767-.813-1.951-.12c-.935-.059-1.714-.499-2.192-1.213.254-.015.499-.055.743-.12l1.861-.504-1.877-.447c-.912-.217-1.432-.747-1.707-1.153-.181-.267-.3-.54-.37-.793.188.049.407.084.761.118l1.737.167-1.376-1.043c-.992-.751-1.39-1.88-1.098-2.965 3.095 3.118 6.73 2.884 7.095 2.966-.08-.76-.082-.761-.103-.834-.469-1.608.558-2.425 1.021-2.701.967-.578 2.503-.665 3.566.286.23.206.54.286.831.216a7.36 7.36 0 00.685-.202l-.437 1.21.558.001c-.105.137-.232.3-.383.498z"></path>
  </symbol>
</svg>